<mxfile host="app.diagrams.net" agent="Mozilla/5.0 (X11; Linux x86_64; rv:133.0) Gecko/20100101 Firefox/133.0" version="24.8.3">
  <diagram name="Page-1" id="q6Y4DJE6RRKYMWXtsjI4">
    <mxGraphModel dx="989" dy="517" grid="1" gridSize="10" guides="1" tooltips="1" connect="1" arrows="1" fold="1" page="1" pageScale="1" pageWidth="850" pageHeight="1100" math="0" shadow="0">
      <root>
        <mxCell id="0" />
        <mxCell id="1" parent="0" />
        <mxCell id="24AgmD0BqlbjLxzSFWLL-1" value="" style="shape=umlActor;verticalLabelPosition=bottom;verticalAlign=top;html=1;outlineConnect=0;" vertex="1" parent="1">
          <mxGeometry x="190" y="300" width="30" height="60" as="geometry" />
        </mxCell>
        <mxCell id="24AgmD0BqlbjLxzSFWLL-25" value="Web Browser" style="rounded=1;whiteSpace=wrap;html=1;" vertex="1" parent="1">
          <mxGeometry x="300" y="300" width="120" height="60" as="geometry" />
        </mxCell>
        <mxCell id="24AgmD0BqlbjLxzSFWLL-29" value="HTTP" style="text;html=1;align=center;verticalAlign=middle;resizable=0;points=[];autosize=1;strokeColor=none;fillColor=none;" vertex="1" parent="1">
          <mxGeometry x="355" y="363.75" width="50" height="30" as="geometry" />
        </mxCell>
        <mxCell id="24AgmD0BqlbjLxzSFWLL-31" value="" style="ellipse;html=1;shape=endState;fillColor=strokeColor;" vertex="1" parent="1">
          <mxGeometry x="365" y="645" width="30" height="30" as="geometry" />
        </mxCell>
        <mxCell id="24AgmD0BqlbjLxzSFWLL-33" value="&lt;div&gt;External&lt;/div&gt;&lt;div&gt;System&lt;br&gt;&lt;/div&gt;" style="text;html=1;align=center;verticalAlign=middle;resizable=0;points=[];autosize=1;strokeColor=none;fillColor=none;" vertex="1" parent="1">
          <mxGeometry x="405" y="640" width="70" height="40" as="geometry" />
        </mxCell>
        <mxCell id="24AgmD0BqlbjLxzSFWLL-36" value="" style="group" vertex="1" connectable="0" parent="1">
          <mxGeometry x="90" y="450" width="70" height="37.5" as="geometry" />
        </mxCell>
        <mxCell id="24AgmD0BqlbjLxzSFWLL-34" value="" style="endArrow=classic;html=1;rounded=0;" edge="1" parent="24AgmD0BqlbjLxzSFWLL-36">
          <mxGeometry width="50" height="50" relative="1" as="geometry">
            <mxPoint y="18.75" as="sourcePoint" />
            <mxPoint x="70" y="18.75" as="targetPoint" />
          </mxGeometry>
        </mxCell>
        <mxCell id="24AgmD0BqlbjLxzSFWLL-35" value="" style="endArrow=none;html=1;rounded=0;" edge="1" parent="24AgmD0BqlbjLxzSFWLL-36">
          <mxGeometry width="50" height="50" relative="1" as="geometry">
            <mxPoint x="50" y="37.5" as="sourcePoint" />
            <mxPoint x="50" as="targetPoint" />
          </mxGeometry>
        </mxCell>
        <mxCell id="24AgmD0BqlbjLxzSFWLL-40" style="edgeStyle=orthogonalEdgeStyle;rounded=0;orthogonalLoop=1;jettySize=auto;html=1;" edge="1" parent="1" source="24AgmD0BqlbjLxzSFWLL-37" target="24AgmD0BqlbjLxzSFWLL-31">
          <mxGeometry relative="1" as="geometry" />
        </mxCell>
        <mxCell id="24AgmD0BqlbjLxzSFWLL-37" value="" style="rounded=0;whiteSpace=wrap;html=1;" vertex="1" parent="1">
          <mxGeometry x="180" y="415" width="400" height="180" as="geometry" />
        </mxCell>
        <mxCell id="24AgmD0BqlbjLxzSFWLL-26" value="Flask processes user request and asks for data" style="rounded=1;whiteSpace=wrap;html=1;" vertex="1" parent="1">
          <mxGeometry x="200" y="440" width="120" height="100" as="geometry" />
        </mxCell>
        <mxCell id="24AgmD0BqlbjLxzSFWLL-28" style="edgeStyle=orthogonalEdgeStyle;rounded=0;orthogonalLoop=1;jettySize=auto;html=1;entryX=0.452;entryY=0.061;entryDx=0;entryDy=0;entryPerimeter=0;" edge="1" parent="1" source="24AgmD0BqlbjLxzSFWLL-25" target="24AgmD0BqlbjLxzSFWLL-26">
          <mxGeometry relative="1" as="geometry" />
        </mxCell>
        <mxCell id="24AgmD0BqlbjLxzSFWLL-38" value="" style="endArrow=classic;html=1;rounded=0;" edge="1" parent="1">
          <mxGeometry width="50" height="50" relative="1" as="geometry">
            <mxPoint x="330" y="487.5" as="sourcePoint" />
            <mxPoint x="390" y="487.5" as="targetPoint" />
          </mxGeometry>
        </mxCell>
        <mxCell id="24AgmD0BqlbjLxzSFWLL-39" value="PyMongo retrieves data from the system" style="rounded=1;whiteSpace=wrap;html=1;" vertex="1" parent="1">
          <mxGeometry x="390" y="440" width="120" height="100" as="geometry" />
        </mxCell>
      </root>
    </mxGraphModel>
  </diagram>
</mxfile>
